<?xml version="1.0" encoding="UTF-8"?>
<svg width="64px" height="151px" viewBox="0 0 64 151" version="1.1" xmlns="http://www.w3.org/2000/svg" xmlns:xlink="http://www.w3.org/1999/xlink">
    <defs>
        <path d="M31.3671972,0.0408163265 C38.2394506,0.0408163265 44.3025115,2.64518676 49.2866525,7.73660921 C60.181399,18.8462378 63.7699825,39.8923528 63.4533422,55.8822403 C63.1953411,69.0800551 57.953196,84.3308641 57.7303748,84.9760914 C57.4489174,85.773826 56.8156397,86.4190533 56.0416303,86.7592629 C55.6663538,86.9235039 55.3145335,87.0408163 54.9158007,87.0408163 C54.4936146,87.0408163 54.0010656,86.9352346 53.6023328,86.7592629 C48.09046,84.2487466 38.9079112,81.9728552 32.6806652,81.5035995 C26.2892372,81.0578081 12.4509144,83.9202677 12.3219124,83.9437289 C10.9146253,84.237013 9.50733826,83.4744733 8.94442344,82.1605574 C8.65123939,81.4801382 1.87280522,65.3963996 0.594520223,48.1864474 C-0.156032875,38.1443762 2.40054012,19.198178 12.5095507,8.299716 C17.6226936,2.78596346 23.9085758,0.0408163265 31.3671972,0.0408163265 Z M8.02673915,106.066236 C8.41455082,106.007884 8.84937307,106.054566 9.24893588,106.1596 L10.3771175,106.439693 C13.0565488,107.186608 19.2497964,108.960529 27.9579473,109.707443 C30.7901524,109.952524 33.904406,110.080901 37.1714303,110.080901 C44.8924223,110.080901 51.0269113,109.43902 51.08567,109.42735 C51.9435573,109.322316 52.7896935,109.520715 53.4360483,110.080901 C54.0824031,110.641086 54.4584636,111.469695 54.4702147,112.321643 C54.5407276,121.483014 52.9189651,134.157217 44.7866561,142.29158 C39.6393291,147.449959 32.6704551,150.040816 24.0093117,150.040816 C18.2508863,150.040816 12.9625336,147.379934 9.24893588,142.571673 C3.11444997,134.624039 1.82174039,122.171576 5.5823457,108.306979 C5.89964753,107.116586 6.87505528,106.229625 8.02673915,106.066236 Z" id="path-1"></path>
    </defs>
    <g id="Page-1" stroke="none" stroke-width="1" fill="none" fill-rule="evenodd">
        <g id="Artboard-2" transform="translate(-1289.000000, -56.000000)">
            <g id="feets" transform="translate(1079.000000, 52.000000)">
                <g id="icon_foot" transform="translate(242.000000, 79.500000) scale(-1, 1) translate(-242.000000, -79.500000) translate(210.000000, 4.000000)">
                    <mask id="mask-2" fill="white">
                        <use xlink:href="#path-1"></use>
                    </mask>
                    <use id="Shape-Copy" fill="#FFFFFF" fill-rule="nonzero" xlink:href="#path-1"></use>
                </g>
            </g>
        </g>
    </g>
</svg>
