<?xml version="1.0" encoding="UTF-8"?>
<svg width="64px" height="151px" viewBox="0 0 64 151" version="1.1" xmlns="http://www.w3.org/2000/svg" xmlns:xlink="http://www.w3.org/1999/xlink">
    <!-- Generator: Sketch 43.2 (39069) - http://www.bohemiancoding.com/sketch -->
    <title>Shape Copy</title>
    <desc>Created with Sketch.</desc>
    <defs>
        <path d="M31.3671972,0.0408163265 C38.2394506,0.0408163265 44.3025115,2.64518676 49.2866525,7.73660921 C60.181399,18.8462378 63.7699825,39.8923528 63.4533422,55.8822403 C63.1953411,69.0800551 57.953196,84.3308641 57.7303748,84.9760914 C57.4489174,85.773826 56.8156397,86.4190533 56.0416303,86.7592629 C55.6663538,86.9235039 55.3145335,87.0408163 54.9158007,87.0408163 C54.4936146,87.0408163 54.0010656,86.9352346 53.6023328,86.7592629 C48.09046,84.2487466 38.9079112,81.9728552 32.6806652,81.5035995 C26.2892372,81.0578081 12.4509144,83.9202677 12.3219124,83.9437289 C10.9146253,84.237013 9.50733826,83.4744733 8.94442344,82.1605574 C8.65123939,81.4801382 1.87280522,65.3963996 0.594520223,48.1864474 C-0.156032875,38.1443762 2.40054012,19.198178 12.5095507,8.299716 C17.6226936,2.78596346 23.9085758,0.0408163265 31.3671972,0.0408163265 Z M8.02673915,106.066236 C8.41455082,106.007884 8.84937307,106.054566 9.24893588,106.1596 L10.3771175,106.439693 C13.0565488,107.186608 19.2497964,108.960529 27.9579473,109.707443 C30.7901524,109.952524 33.904406,110.080901 37.1714303,110.080901 C44.8924223,110.080901 51.0269113,109.43902 51.08567,109.42735 C51.9435573,109.322316 52.7896935,109.520715 53.4360483,110.080901 C54.0824031,110.641086 54.4584636,111.469695 54.4702147,112.321643 C54.5407276,121.483014 52.9189651,134.157217 44.7866561,142.29158 C39.6393291,147.449959 32.6704551,150.040816 24.0093117,150.040816 C18.2508863,150.040816 12.9625336,147.379934 9.24893588,142.571673 C3.11444997,134.624039 1.82174039,122.171576 5.5823457,108.306979 C5.89964753,107.116586 6.87505528,106.229625 8.02673915,106.066236 Z" id="path-1"></path>
    </defs>
    <g id="Page-1" stroke="none" stroke-width="1" fill="none" fill-rule="evenodd">
        <g id="Artboard-2" transform="translate(-1289.000000, -56.000000)">
            <g id="feets" transform="translate(1079.000000, 52.000000)">
                <g id="icon_foot" transform="translate(242.000000, 79.500000) scale(-1, 1) translate(-242.000000, -79.500000) translate(210.000000, 4.000000)">
                    <mask id="mask-2" fill="white">
                        <use xlink:href="#path-1"></use>
                    </mask>
                    <path stroke="#BF00FF" d="M31.3671972,0.540816327 C38.1031656,0.540816327 44.0380128,3.08975222 48.9293548,8.08637824 C58.4834024,17.8288649 63.3325866,36.7259846 62.9534402,55.8723409 C62.8410611,61.6209899 61.7841959,68.1780514 60.0932846,75.0163658 C59.4923817,77.4465127 58.8497228,79.7517983 58.2040728,81.8680056 C57.8009078,83.1894347 57.4823295,84.1625985 57.2577627,84.8128807 C57.0290875,85.4609812 56.5044285,86.0096759 55.8404367,86.3015282 C55.4569126,86.469378 55.1922602,86.5408163 54.9158007,86.5408163 C54.563714,86.5408163 54.1398552,86.4499586 53.8042106,86.3018295 C48.2953546,83.7926492 39.0644345,81.4832324 32.7182363,81.0050131 C30.6230732,80.8588712 27.6545669,81.0465161 24.0243039,81.4982651 C22.4600112,81.6929253 20.8106654,81.9322814 19.1092518,82.2065408 C17.4312479,82.4770267 15.7932917,82.7665056 14.2510507,83.0577029 C13.3368131,83.2303241 12.0732317,83.4807542 12.2324462,83.4517983 C11.0567056,83.6966603 9.87775179,83.069405 9.40402026,81.9636545 C9.15783762,81.3923131 8.70045458,80.2514751 8.16443718,78.8108427 C7.31190542,76.5195273 6.44693046,73.9718999 5.61750478,71.2274301 C3.28378872,63.5054444 1.6511284,55.6616946 1.09314668,48.1494115 C0.106877739,34.953565 4.30709899,17.8779644 12.8761317,8.639743 C17.8902437,3.2327804 24.0412059,0.540816327 31.3671972,0.540816327 Z M8.10113404,106.560671 C8.39481411,106.516482 8.75600235,106.547009 9.1218183,106.643172 L10.2566403,106.924961 C12.9988685,107.689592 14.4183974,108.05699 16.8030363,108.562691 C20.2989722,109.30406 23.9801575,109.868097 27.9152183,110.205614 C30.7793005,110.453453 33.9100885,110.580901 37.1714303,110.580901 C43.0226259,110.580901 50.1692056,110.119131 51.1830702,109.917772 C51.9047096,109.830806 52.596924,110.015298 53.1085791,110.458742 C53.6426791,110.921638 53.9603947,111.613144 53.9702623,112.328539 C54.0643322,124.55176 51.267364,135.102039 44.433058,141.938072 C39.3891475,146.992811 32.5519264,149.540816 24.0093117,149.540816 C18.3968602,149.540816 13.2577444,146.944174 9.64465309,142.266046 C3.63465009,134.479688 2.33137274,122.20267 6.06490958,108.437869 C6.33094832,107.439813 7.14365126,106.696526 8.09697073,106.561279 L8.10113404,106.560671 Z"></path>
                </g>
            </g>
        </g>
    </g>
</svg>